<?xml version="1.0" standalone="no"?>
<!DOCTYPE svg PUBLIC "-//W3C//DTD SVG 20010904//EN"
 "http://www.w3.org/TR/2001/REC-SVG-20010904/DTD/svg10.dtd">
<svg version="1.0" xmlns="http://www.w3.org/2000/svg"
 width="400.000000pt" height="400.000000pt" viewBox="0 0 400.000000 400.000000"
 preserveAspectRatio="xMidYMid meet">

<g transform="translate(0.000000,400.000000) scale(0.100000,-0.100000)"
fill="#000000" stroke="none">
<path d="M0 2000 l0 -2000 2000 0 2000 0 0 2000 0 2000 -2000 0 -2000 0 0
-2000z m2140 1190 c749 -92 1229 -835 1004 -1552 -181 -577 -789 -935 -1380
-813 -424 88 -762 387 -899 797 -62 186 -65 228 -65 941 l0 637 628 0 c373 0
662 -4 712 -10z"/>
<path d="M2010 2285 l0 -295 -295 0 -295 0 0 -36 c0 -111 73 -267 170 -364
112 -112 252 -170 412 -170 165 0 290 52 408 170 120 120 172 244 171 415 0
263 -179 493 -436 560 -33 8 -76 15 -97 15 l-38 0 0 -295z"/>
</g>
</svg>
